<svg width="256" height="256" viewBox="0 0 256 256" fill="none" xmlns="http://www.w3.org/2000/svg">
<g clip-path="url(#clip0_6_6)">
<path d="M168 176C216.6 176 256 136.6 256 88C256 39.4 216.6 0 168 0C119.4 0 80 39.4 80 88C80 97.35 81.45 106.4 84.15 114.85L3.5 195.5L0 199V204V244V256H12H52H64V244V224H84H96V212V192H116H120.95L124.45 188.5L141.1 171.85C149.55 174.55 158.6 176 167.95 176H168ZM188 88C176.95 88 168 79.05 168 68C168 56.95 176.95 48 188 48C199.05 48 208 56.95 208 68C208 79.05 199.05 88 188 88Z" fill="#F8F8F2"/>
</g>
<defs>
<clipPath id="clip0_6_6">
<rect width="256" height="256" fill="white"/>
</clipPath>
</defs>
</svg>
